<?xml version="1.0" encoding="UTF-8" standalone="no"?>
<svg
   xmlns:dc="http://purl.org/dc/elements/1.1/"
   xmlns:cc="http://creativecommons.org/ns#"
   xmlns:rdf="http://www.w3.org/1999/02/22-rdf-syntax-ns#"
   xmlns:svg="http://www.w3.org/2000/svg"
   xmlns="http://www.w3.org/2000/svg"
   xmlns:sodipodi="http://sodipodi.sourceforge.net/DTD/sodipodi-0.dtd"
   xmlns:inkscape="http://www.inkscape.org/namespaces/inkscape"
   version="1.1"
   x="0px"
   y="0px"
   viewBox="0 0 55.004238 41.411243"
   enable-background="new 0 0 100 100"
   xml:space="preserve"
   id="svg18"
   sodipodi:docname="noun_854584_cc.svg"
   width="55.004238"
   height="41.411243"
   inkscape:version="0.92.3 (3ce5693, 2018-03-11)"><metadata
     id="metadata24"><rdf:RDF><cc:Work
         rdf:about=""><dc:format>image/svg+xml</dc:format><dc:type
           rdf:resource="http://purl.org/dc/dcmitype/StillImage" /><dc:title></dc:title></cc:Work></rdf:RDF></metadata><defs
     id="defs22" /><sodipodi:namedview
     pagecolor="#ffffff"
     bordercolor="#666666"
     borderopacity="1"
     objecttolerance="10"
     gridtolerance="10"
     guidetolerance="10"
     inkscape:pageopacity="0"
     inkscape:pageshadow="2"
     inkscape:window-width="1299"
     inkscape:window-height="713"
     id="namedview20"
     showgrid="false"
     fit-margin-top="0"
     fit-margin-left="0"
     fit-margin-right="0"
     fit-margin-bottom="0"
     inkscape:zoom="2.6700352"
     inkscape:cx="41.697449"
     inkscape:cy="8.1996097"
     inkscape:window-x="67"
     inkscape:window-y="27"
     inkscape:window-maximized="1"
     inkscape:current-layer="svg18" /><path
     stroke-miterlimit="10"
     d="m 29.157,12.009242 c 1.708,-2.035 4.271,-3.328 7.135,-3.328 5.143,0 9.312,4.169 9.312,9.312 0,1.286 -0.261,2.511 -0.732,3.625"
     id="path2"
     inkscape:connector-curvature="0"
     style="fill:none;stroke:#000000;stroke-width:2;stroke-linecap:round;stroke-linejoin:round;stroke-miterlimit:10" /><line
     stroke-miterlimit="10"
     x1="28.728998"
     y1="7.760241"
     x2="25.728998"
     y2="4.4352441"
     id="line4"
     style="fill:none;stroke:#000000;stroke-width:2;stroke-linecap:round;stroke-linejoin:round;stroke-miterlimit:10" /><line
     stroke-miterlimit="10"
     x1="38.700001"
     y1="4.8632417"
     x2="38.700001"
     y2="1.0142425"
     id="line6"
     style="fill:none;stroke:#000000;stroke-width:2;stroke-linecap:round;stroke-linejoin:round;stroke-miterlimit:10" /><line
     stroke-miterlimit="10"
     x1="46.903"
     y1="9.8122425"
     x2="50.150002"
     y2="6.5652413"
     id="line8"
     style="fill:none;stroke:#000000;stroke-width:2;stroke-linecap:round;stroke-linejoin:round;stroke-miterlimit:10" /><line
     stroke-miterlimit="10"
     x1="48.859001"
     y1="17.216242"
     x2="53.989998"
     y2="17.216242"
     id="line10"
     style="fill:none;stroke:#000000;stroke-width:2;stroke-linecap:round;stroke-linejoin:round;stroke-miterlimit:10" /><path
     stroke-miterlimit="10"
     d="m 37.189,21.792242 c -0.806,0 -1.583,0.113 -2.329,0.305 -1.06,-4.74 -5.285,-8.284 -10.344,-8.284 -5.234,0 -9.571,3.794 -10.439,8.779 -1.152,-0.511 -2.425,-0.801 -3.767,-0.801 -5.142,0 -9.31,4.168 -9.31,9.31 0,5.142 4.168,9.31 9.31,9.31 4.265,0 22.85,0 26.879,0 5.142,0 9.31,-4.168 9.31,-9.31 0,-5.142 -4.168,-9.309 -9.31,-9.309 z"
     id="path12"
     inkscape:connector-curvature="0"
     style="fill:none;stroke:#000000;stroke-width:2;stroke-linecap:round;stroke-linejoin:round;stroke-miterlimit:10" /></svg>