<?xml version="1.0" encoding="UTF-8" standalone="no"?>
<svg
   xmlns:dc="http://purl.org/dc/elements/1.1/"
   xmlns:cc="http://creativecommons.org/ns#"
   xmlns:rdf="http://www.w3.org/1999/02/22-rdf-syntax-ns#"
   xmlns:svg="http://www.w3.org/2000/svg"
   xmlns="http://www.w3.org/2000/svg"
   xmlns:sodipodi="http://sodipodi.sourceforge.net/DTD/sodipodi-0.dtd"
   xmlns:inkscape="http://www.inkscape.org/namespaces/inkscape"
   version="1.1"
   x="0px"
   y="0px"
   viewBox="0 0 49.721985 37.422997"
   enable-background="new 0 0 100 100"
   xml:space="preserve"
   id="svg12"
   sodipodi:docname="noun_854583_cc.svg"
   width="49.721985"
   height="37.422997"
   inkscape:version="0.92.3 (3ce5693, 2018-03-11)"><metadata
     id="metadata18"><rdf:RDF><cc:Work
         rdf:about=""><dc:format>image/svg+xml</dc:format><dc:type
           rdf:resource="http://purl.org/dc/dcmitype/StillImage" /><dc:title></dc:title></cc:Work></rdf:RDF></metadata><defs
     id="defs16" /><sodipodi:namedview
     pagecolor="#ffffff"
     bordercolor="#666666"
     borderopacity="1"
     objecttolerance="10"
     gridtolerance="10"
     guidetolerance="10"
     inkscape:pageopacity="0"
     inkscape:pageshadow="2"
     inkscape:window-width="640"
     inkscape:window-height="486"
     id="namedview14"
     showgrid="false"
     fit-margin-top="0"
     fit-margin-left="0"
     fit-margin-right="0"
     fit-margin-bottom="0"
     inkscape:zoom="1.888"
     inkscape:cx="24.018"
     inkscape:cy="7.167"
     inkscape:window-x="67"
     inkscape:window-y="27"
     inkscape:window-maximized="0"
     inkscape:current-layer="svg12" /><g
     id="g4"
     transform="translate(-25.982,-32.244002)"><path
       stroke-miterlimit="10"
       d="m 71.894,49.766 c 1.488,-1.454 2.507,-3.388 2.81,-5.55 -0.058,10e-4 -0.114,0.009 -0.172,0.009 -5.321,0 -9.635,-4.314 -9.635,-9.635 0,-0.458 0.043,-0.905 0.105,-1.346 -3.931,0.07 -7.288,2.489 -8.721,5.915"
       id="path2"
       inkscape:connector-curvature="0"
       style="fill:none;stroke:#4279a5;stroke-width:2;stroke-linecap:round;stroke-linejoin:round;stroke-miterlimit:10" /></g><path
     stroke-miterlimit="10"
     d="m 37.189,17.803998 c -0.806,0 -1.583,0.113 -2.329,0.305 -1.06,-4.74 -5.285,-8.2840001 -10.344,-8.2840001 -5.234,0 -9.571,3.7940001 -10.439,8.7790001 -1.152,-0.511 -2.425,-0.801 -3.767,-0.801 -5.142,0 -9.31,4.168 -9.31,9.31 0,5.142 4.168,9.31 9.31,9.31 4.265,0 22.85,0 26.879,0 5.142,0 9.31,-4.168 9.31,-9.31 0,-5.142 -4.168,-9.309 -9.31,-9.309 z"
     id="path6"
     inkscape:connector-curvature="0"
     style="fill:none;stroke:#4279a5;stroke-width:2;stroke-linecap:round;stroke-linejoin:round;stroke-miterlimit:10" /></svg>
