<?xml version="1.0" encoding="UTF-8" standalone="no"?>
<svg
   xmlns:dc="http://purl.org/dc/elements/1.1/"
   xmlns:cc="http://creativecommons.org/ns#"
   xmlns:rdf="http://www.w3.org/1999/02/22-rdf-syntax-ns#"
   xmlns:svg="http://www.w3.org/2000/svg"
   xmlns="http://www.w3.org/2000/svg"
   xmlns:sodipodi="http://sodipodi.sourceforge.net/DTD/sodipodi-0.dtd"
   xmlns:inkscape="http://www.inkscape.org/namespaces/inkscape"
   version="1.1"
   x="0px"
   y="0px"
   viewBox="0 0 47.499001 49.014626"
   enable-background="new 0 0 100 100"
   xml:space="preserve"
   id="svg56"
   sodipodi:docname="11d.svg"
   width="47.499001"
   height="49.014626"
   inkscape:version="0.92.3 (3ce5693, 2018-03-11)"><metadata
     id="metadata62"><rdf:RDF><cc:Work
         rdf:about=""><dc:format>image/svg+xml</dc:format><dc:type
           rdf:resource="http://purl.org/dc/dcmitype/StillImage" /><dc:title /></cc:Work></rdf:RDF></metadata><defs
     id="defs60" /><sodipodi:namedview
     pagecolor="#ffffff"
     bordercolor="#666666"
     borderopacity="1"
     objecttolerance="10"
     gridtolerance="10"
     guidetolerance="10"
     inkscape:pageopacity="0"
     inkscape:pageshadow="2"
     inkscape:window-width="1299"
     inkscape:window-height="713"
     id="namedview58"
     showgrid="false"
     fit-margin-top="0"
     fit-margin-left="0"
     fit-margin-right="0"
     fit-margin-bottom="0"
     inkscape:zoom="10.680141"
     inkscape:cx="24.390833"
     inkscape:cy="26.24356"
     inkscape:window-x="67"
     inkscape:window-y="27"
     inkscape:window-maximized="1"
     inkscape:current-layer="svg56" /><path
     stroke-miterlimit="10"
     d="m 37.189,8.979 c -0.806,0 -1.583,0.113 -2.329,0.305 C 33.8,4.544 29.575,1 24.516,1 19.282,1 14.945,4.794 14.077,9.779 12.925,9.268 11.652,8.978 10.31,8.978 5.168,8.978 1,13.146 1,18.288 c 0,5.142 4.168,9.31 9.31,9.31 4.265,0 22.85,0 26.879,0 5.142,0 9.31,-4.168 9.31,-9.31 0,-5.142 -4.168,-9.309 -9.31,-9.309 z"
     id="path48"
     inkscape:connector-curvature="0"
     style="fill:none;stroke:#4279a5;stroke-width:2;stroke-linecap:round;stroke-linejoin:round;stroke-miterlimit:10" /><polygon
     stroke-miterlimit="10"
     points="49.875,64.75 46.375,74.875 58.5,60.5 52.125,59.875 55.875,54.46 47.667,54.46 44.375,65.5 "
     id="polygon50"
     style="stroke:#4279a5;stroke-width:2;stroke-linecap:round;stroke-linejoin:round;stroke-miterlimit:10;fill:#ffffff;fill-opacity:0.94117647"
     transform="translate(-27.864,-26.86)" /></svg>